PathFileType	4	(X/Y/Z)	..\data\2015026\dynamic\2015026_C5_03.trc
DataRate	CameraRate	NumFrames	NumMarkers	Units	OrigDataRate	OrigDataStartFrame	OrigNumFrames
100.000000	100.000000	4	48	mm	100.000000	17	136
Frame#	Time	L_IAS			L_IPS			R_IPS			R_IAS			L_FTC			L_FLE			L_FAX			L_TTC			L_FAL			L_FCC			L_FM1			L_FM2			L_FM5			R_FTC			R_FLE			R_FAX			R_TTC			R_FAL			R_FCC			R_FM1			R_FM2			R_FM5			CV7			TV10			SXS			SJN			L_SIA			L_SRS			L_SAA			L_SAE			L_HLE			L_HME			L_UOA			L_RSP			L_UHE			L_HM2			L_HM5			R_SIA			R_SRS			R_SAA			R_SAE			R_HLE			R_HME			R_UOA			R_RSP			R_UHE			R_HM2			R_HM5			
		X1	Y1	Z1	X2	Y2	Z2	X3	Y3	Z3	X4	Y4	Z4	X5	Y5	Z5	X6	Y6	Z6	X7	Y7	Z7	X8	Y8	Z8	X9	Y9	Z9	X10	Y10	Z10	X11	Y11	Z11	X12	Y12	Z12	X13	Y13	Z13	X14	Y14	Z14	X15	Y15	Z15	X16	Y16	Z16	X17	Y17	Z17	X18	Y18	Z18	X19	Y19	Z19	X20	Y20	Z20	X21	Y21	Z21	X22	Y22	Z22	X23	Y23	Z23	X24	Y24	Z24	X25	Y25	Z25	X26	Y26	Z26	X27	Y27	Z27	X28	Y28	Z28	X29	Y29	Z29	X30	Y30	Z30	X31	Y31	Z31	X32	Y32	Z32	X33	Y33	Z33	X34	Y34	Z34	X35	Y35	Z35	X36	Y36	Z36	X37	Y37	Z37	X38	Y38	Z38	X39	Y39	Z39	X40	Y40	Z40	X41	Y41	Z41	X42	Y42	Z42	X43	Y43	Z43	X44	Y44	Z44	X45	Y45	Z45	X46	Y46	Z46	X47	Y47	Z47	X48	Y48	Z48	

18	0.17	-1026.937866210938	920.7630004882815	76.52050781249989	-1212.76806640625	931.361267089844	147.0198974609374	-1197.718017578125	943.1599121093752	260.0197143554686	-1006.353515625	932.280944824219	297.7554321289062	-1100.715698242188	837.4305419921877	17.76615333557116	-1114.402954101563	427.9379272460939	58.31855392456043	-1163.046020507813	411.1013488769532	59.57178115844714	-1121.646362304688	348.8903808593751	99.09580993652332	-1441.813232421875	219.5663452148438	89.41795349121078	-1494.768676757813	230.8396759033204	138.6310424804686	-1422.569702148438	63.74742507934572	157.1226501464842	-1416.38525390625	64.74737548828126	107.7151412963866	-1452.22314453125	90.17299652099611	62.78686141967757	-1082.832641601563	850.3449707031252	370.3764648437499	-936.1853637695315	469.1466064453126	284.9031677246093	-953.342468261719	406.9295959472657	288.7179870605468	-901.4125976562502	401.0530700683595	233.9666137695312	-964.017761230469	62.25962829589845	267.5440063476562	-1010.394348144531	20.4138298034668	228.1839904785156	-813.1995239257815	18.02909469604493	184.1983947753905	-810.2581787109377	33.11875534057618	239.5577392578125	-854.062438964844	17.10107421875	291.2843933105468	-1163.279174804688	1417.55419921875	211.4122314453124	-1237.511108398438	1180.856811523438	191.5959472656249	-1010.988647460938	1118.052490234375	176.9928588867187	-1042.702270507813	1334.647827148438	190.7081604003905	-1241.905151367188	1221.782836914063	113.0546646118163	-1213.448608398438	1354.01953125	118.0518951416014	-1171.078857421875	1366.440063476563	33.13901901245104	-1130.314086914063	1367.721557617188	14.81884670257555	-1111.682861328125	1059.024536132813	-64.97235870361344	-1157.50537109375	1040.60205078125	3.611283540725567	-1148.947021484375	1033.325317382813	-45.22714996337906	-969.2631835937502	862.971130371094	1.063499093055607	-1029.770874023438	839.2932739257815	-43.8006744384767	-920.3811645507815	797.0432739257815	-3.116150617599601	-1008.673706054688	768.0090332031252	-41.64105606079114	-1234.138061523438	1214.000732421875	277.9217834472655	-1204.177124023438	1345.933959960938	253.807647705078	-1151.561645507813	1353.793701171875	356.4593505859374	-1097.699340820313	1348.1240234375	377.7556152343749	-1175.986694335938	1046.990600585938	440.1465148925781	-1208.951538085938	1036.061401367188	369.1952209472655	-1213.0244140625	1033.496826171875	414.6279907226562	-1142.340698242188	798.363952636719	457.1601867675781	-1218.99658203125	812.8477783203127	464.2345275878906	-1156.823486328125	708.9096069335939	469.1983947753906	-1248.01025390625	750.6995239257814	470.2689819335937	
19	0.18	-1009.639221191406	924.4683837890627	77.27799224853504	-1195.40625	934.5742187500002	147.7130279541014	-1180.588745117188	946.9246215820315	260.6092834472655	-989.3354492187502	936.0131835937502	298.9419555664062	-1082.286499023438	840.9141845703127	18.85972595214831	-1081.063842773438	431.0401611328126	57.18689346313464	-1129.025390625	414.4522094726564	58.9904098510741	-1086.605102539063	352.0368041992188	97.26870727539053	-1407.070190429688	223.0442962646485	90.86103820800766	-1459.682373046875	232.9356231689454	140.8134918212889	-1383.803955078125	66.63880920410158	154.0406951904295	-1378.74658203125	68.62932586669923	104.810592651367	-1415.9599609375	95.04137420654298	61.41050338745102	-1066.47119140625	854.2427368164065	371.3876647949218	-929.8454589843752	468.9864501953126	285.6856079101562	-948.380310058594	406.9885864257814	289.5097961425781	-896.5252075195315	400.3006896972657	234.9435119628906	-963.7278442382815	62.42125701904298	267.7853698730468	-1010.154418945313	20.52448844909668	228.4384002685546	-813.2530517578127	18.26617622375489	184.4464569091796	-810.1504516601565	33.53636550903321	239.8210144042968	-853.8679809570315	17.53499603271485	291.8377685546874	-1146.269287109375	1421.099853515625	211.084976196289	-1220.448120117188	1184.533447265625	192.0507507324218	-993.7535400390627	1121.519165039063	177.1931610107421	-1025.59130859375	1338.043212890625	190.6162872314452	-1224.944580078125	1225.186279296875	113.2256088256835	-1196.361694335938	1357.4775390625	117.9736328124999	-1154.027099609375	1369.5810546875	32.99518966674791	-1113.289184570313	1370.699951171875	14.56151294708239	-1097.862426757813	1061.286010742188	-63.50166702270523	-1142.620727539063	1043.914916992188	6.035999298095565	-1135.221069335938	1036.64501953125	-43.00771713256851	-960.1028442382815	860.691589355469	-0.9191227555276141	-1022.934265136719	839.065124511719	-44.63948822021498	-914.314392089844	792.372497558594	-5.947786331176871	-1004.387084960938	767.1515502929689	-42.71362686157239	-1217.023803710938	1217.798828125	278.3011474609374	-1187.052734375	1349.486328125	253.7603149414062	-1134.162231445313	1357.5	356.6409912109374	-1080.172485351563	1351.73583984375	377.5531005859374	-1153.264770507813	1049.14892578125	440.5083312988281	-1186.878173828125	1037.762451171875	369.7635803222655	-1190.260375976563	1034.767578125	415.2797241210937	-1113.480712890625	801.334167480469	455.8919372558594	-1190.477905273438	813.7959594726565	464.0856628417968	-1124.6943359375	711.9360351562501	468.3256225585938	-1217.412963867188	750.5944213867189	470.5571289062499	
20	0.19	-992.452331542969	928.5140380859377	77.91716766357411	-1178.147216796875	937.9625244140627	148.455108642578	-1163.61865234375	950.687927246094	261.2153930664061	-972.5009765625002	939.4954223632815	300.0063171386718	-1064.40283203125	844.8415527343752	19.88890838623034	-1047.935913085938	434.9003295898439	56.15872955322254	-1095.172729492188	418.0902709960939	58.52650833129871	-1051.352416992188	356.0071411132813	95.74194335937489	-1370.910888671875	224.4989318847657	92.43046569824203	-1423.4267578125	232.2635040283204	142.972213745117	-1341.619995117188	68.28266906738283	151.1915435791014	-1337.540649414063	71.61265563964845	102.0541534423827	-1376.41259765625	98.25862884521487	60.07525634765609	-1050.353515625	857.8244628906252	372.2126159667968	-924.4261474609377	468.7503662109376	286.4230651855468	-944.3401489257815	406.9532470703126	290.2658386230468	-892.4905395507815	399.5439453125001	235.9384307861328	-963.4450683593752	62.57834625244142	268.0335388183593	-1009.849182128906	20.60261154174805	228.6667480468749	-813.2254028320315	18.88319778442383	184.7314453124999	-810.042663574219	34.22074127197266	240.1135864257812	-853.6030273437502	18.09503936767578	292.2907104492187	-1129.403930664063	1424.667602539063	210.6695556640624	-1203.448120117188	1188.215698242188	192.5468292236327	-976.6358642578127	1125.072265625	177.3942565917968	-1008.598754882813	1341.471923828125	190.4739837646484	-1208.0654296875	1228.57666015625	113.4595489501952	-1179.40283203125	1360.880615234375	117.8576660156249	-1137.13134765625	1372.702880859375	32.84220886230455	-1096.442626953125	1373.697265625	14.28643608093249	-1084.22705078125	1063.652221679688	-62.0903816223146	-1127.9326171875	1047.345092773438	8.374896049499375	-1121.646728515625	1040.0947265625	-40.85083007812514	-951.477966308594	858.628112792969	-2.830648899078486	-1016.353454589844	839.1848144531252	-45.56187057495131	-908.9117431640627	788.0156860351565	-8.508721351623649	-1000.476623535156	766.7324829101564	-43.78359985351575	-1200.006958007813	1221.659057617188	278.6625061035155	-1170.094116210938	1353.045532226563	253.6390838623046	-1116.9755859375	1361.317749023438	356.7198486328124	-1062.882934570313	1355.521118164063	377.2866210937499	-1130.566284179688	1051.540161132813	440.7450256347656	-1164.609985351563	1039.563720703125	370.1577758789061	-1167.42041015625	1036.132934570313	415.7859497070312	-1084.255004882813	804.6904296875002	454.2857666015625	-1161.529907226563	814.9523925781252	463.5933837890624	-1091.923461914063	715.5073242187501	467.2776794433594	-1186.220581054688	750.6994628906251	470.6134948730468	
21	0.2	-975.324645996094	932.8023681640627	78.49485778808584	-1160.940673828125	941.4357910156252	149.1892547607421	-1146.773803710938	954.3677978515627	261.8000183105468	-955.8174438476565	942.6821899414065	300.9639587402343	-1046.939575195313	849.073181152344	20.81073188781726	-1015.097778320313	439.387176513672	55.24560928344716	-1061.579833984375	421.8735961914064	58.17624664306629	-1016.021789550781	360.6728210449219	94.50541687011707	-1333.482666015625	223.8626251220704	94.04991912841783	-1386.113647460938	228.8868255615235	145.0326843261717	-1296.5478515625	68.63451385498048	148.677764892578	-1293.28955078125	73.53256988525392	99.56620025634753	-1333.997924804688	99.67742919921878	58.84820175170884	-1034.427001953125	861.0364379882815	372.8427734374999	-919.7711181640627	468.4636840820314	287.0856628417968	-941.0523071289065	406.8621215820314	290.9570007324218	-889.1618652343752	398.8000793457032	236.8871612548828	-963.1926269531252	62.7196502685547	268.2640991210937	-1009.54736328125	20.66966629028321	228.8600158691406	-813.1430664062502	19.67341232299805	185.0070037841796	-809.9389648437502	34.99236297607423	240.3949127197265	-853.313659667969	18.65647506713868	292.6268920898437	-1112.65771484375	1428.172607421875	210.2020263671874	-1186.471557617188	1191.799560546875	193.0916748046874	-959.6030883789065	1128.652954101563	177.615982055664	-991.701843261719	1344.865356445313	190.3134002685546	-1191.230834960938	1231.870849609375	113.778709411621	-1162.545654296875	1364.145385742188	117.7335357666014	-1120.36279296875	1375.7314453125	32.71014785766589	-1079.742065429688	1376.646606445313	14.02650642395007	-1070.759033203125	1066.073974609375	-60.75827026367202	-1113.456665039063	1050.831909179688	10.59668064117418	-1108.215087890625	1043.616943359375	-38.79359817504897	-943.350280761719	856.772644042969	-4.653117179870722	-1009.939208984375	839.6298828125002	-46.57653808593763	-904.0818481445315	784.0061035156252	-10.78242301940929	-996.8496704101565	766.7329101562501	-44.87700653076185	-1183.042236328125	1225.490600585938	279.0388793945311	-1153.272094726563	1356.525634765625	253.4816131591796	-1099.98046875	1365.168823242188	356.7162475585937	-1045.807861328125	1359.414306640625	376.9839172363281	-1107.944702148438	1054.126220703125	440.8744506835938	-1142.185424804688	1041.44580078125	370.3818359374999	-1144.551635742188	1037.552734375	416.1542358398438	-1054.733520507813	808.429626464844	452.3786926269531	-1132.207275390625	816.3101806640627	462.7464904785156	-1058.6240234375	719.6136474609376	466.0397338867188	-1154.50146484375	751.0241699218751	470.3861083984375	
